<?xml version="1.0" standalone="no"?>
<!DOCTYPE svg PUBLIC "-//W3C//DTD SVG 20010904//EN"
 "http://www.w3.org/TR/2001/REC-SVG-20010904/DTD/svg10.dtd">
<svg version="1.0" xmlns="http://www.w3.org/2000/svg"
 width="150.000000pt" height="150.000000pt" viewBox="0 0 150.000000 150.000000"
 preserveAspectRatio="xMidYMid meet">

<g transform="translate(0.000000,150.000000) scale(0.100000,-0.100000)"
fill="#000000" stroke="none">
<path d="M522 1340 l-22 -29 24 -26 24 -26 26 26 26 26 -22 29 c-13 16 -26 29
-29 29 -3 1 -15 -12 -27 -29z"/>
<path d="M247 1263 c-4 -3 -7 -14 -7 -24 0 -10 -12 -26 -26 -35 l-25 -17 24
-21 c14 -12 28 -31 32 -43 9 -31 21 -29 33 6 6 16 20 32 31 36 27 8 27 22 0
30 -11 4 -27 22 -35 41 -15 36 -17 38 -27 27z"/>
<path d="M983 1236 l-37 -34 82 -89 c45 -49 93 -96 108 -103 25 -14 28 -13 55
18 32 35 34 47 19 89 l-10 28 30 -33 c50 -54 42 -88 -36 -139 -18 -12 -17 -14
10 -37 39 -33 30 -56 -22 -54 -21 0 -51 -5 -67 -13 -38 -18 -43 -53 -20 -126
27 -85 18 -229 -20 -311 -56 -125 -174 -200 -329 -210 -187 -12 -345 74 -418
227 -26 56 -32 80 -36 162 -5 101 9 170 49 254 l20 40 -25 -29 c-40 -48 -68
-132 -73 -226 -9 -150 25 -248 119 -343 223 -225 637 -159 748 119 34 86 39
235 11 323 -25 79 -18 91 50 91 38 0 51 4 63 22 19 27 20 52 4 78 -10 16 -9
23 10 43 36 38 37 75 4 127 -55 87 -162 160 -235 160 -9 0 -34 -15 -54 -34z"/>
<path d="M660 985 c-17 -21 -5 -60 24 -73 45 -20 89 41 54 76 -17 17 -63 15
-78 -3z"/>
<path d="M536 863 c-5 -11 -1 -22 9 -30 23 -16 47 -5 43 21 -4 27 -43 34 -52
9z"/>
<path d="M782 828 c-17 -17 -15 -44 4 -62 22 -23 51 -20 69 8 14 20 14 28 3
45 -14 23 -57 28 -76 9z"/>
<path d="M395 742 c-65 -31 -79 -53 -72 -114 12 -121 97 -241 210 -296 68 -34
92 -36 197 -19 115 18 221 90 263 180 17 35 17 40 3 63 -15 21 -24 24 -81 24
-71 0 -99 13 -185 85 -92 77 -117 88 -210 92 -68 3 -93 0 -125 -15z"/>
<path d="M1225 309 c-4 -11 -20 -25 -36 -31 -24 -8 -27 -13 -18 -24 6 -8 17
-14 24 -14 6 0 17 -12 24 -27 l13 -28 20 28 c11 15 28 27 39 27 27 0 24 19 -5
30 -13 4 -26 20 -30 34 -8 31 -22 34 -31 5z"/>
</g>
</svg>
